<?xml version="1.0" encoding="iso-8859-1"?>
<!-- Generator: Adobe Illustrator 26.0.3, SVG Export Plug-In . SVG Version: 6.00 Build 0)  -->
<svg version="1.1" id="Camada_1" xmlns="http://www.w3.org/2000/svg" xmlns:xlink="http://www.w3.org/1999/xlink" x="0px" y="0px"
	 viewBox="0 0 512 512" style="enable-background:new 0 0 512 512;" xml:space="preserve">
<rect x="284.647" y="431.824" style="fill:none;" width="11.647" height="0"/>
<g>
	<path style="fill:#E6332A;" d="M290.297,410c0-14.3,0-37.7,0-52v-76c0-14.3,10.133-20.15,22.517-13l65.818,38
		c12.384,7.15,32.649,18.85,45.033,26l65.818,38c12.384,7.15,12.384,18.85,0,26l-65.818,38c-12.384,7.15-32.649,18.85-45.033,26
		l-65.818,38c-12.384,7.15-22.517,1.3-22.517-13V410z"/>
	<path style="fill:none;stroke:#E6332A;stroke-miterlimit:10;" d="M290.297,410c0-14.3,0-37.7,0-52v-76
		c0-14.3,10.133-20.15,22.517-13l65.818,38c12.384,7.15,32.649,18.85,45.033,26l65.818,38c12.384,7.15,12.384,18.85,0,26l-65.818,38
		c-12.384,7.15-32.649,18.85-45.033,26l-65.818,38c-12.384,7.15-22.517,1.3-22.517-13V410z"/>
</g>
<g>
	<path style="fill:#E6332A;" d="M221.702,102c0,14.3,0,37.7,0,52v76c0,14.3-10.132,20.15-22.517,13l-65.818-38
		c-12.384-7.15-32.649-18.85-45.033-26l-65.818-38c-12.384-7.15-12.384-18.85,0-26l65.818-38c12.384-7.15,32.649-18.85,45.033-26
		l65.818-38c12.384-7.15,22.517-1.3,22.517,13V102z"/>
	<path style="fill:none;stroke:#E6332A;stroke-miterlimit:10;" d="M221.702,102c0,14.3,0,37.7,0,52v76
		c0,14.3-10.132,20.15-22.517,13l-65.818-38c-12.384-7.15-32.649-18.85-45.033-26l-65.818-38c-12.384-7.15-12.384-18.85,0-26
		l65.818-38c12.384-7.15,32.649-18.85,45.033-26l65.818-38c12.384-7.15,22.517-1.3,22.517,13V102z"/>
</g>
<path d="M0,280.003v-23.043l170.702,85.494v-25.19L1.622,231.387c0,0,191.98-98.471,192.362-97.326c0.382,1.145,0,71.372,0,71.372
	l-72.517,37.404l-21.66-11.45l71.277-37.785v-24.809L48.949,231.387l145.204,74.807v71.754L0,280.003z"/>
<path d="M512,231.997v23.043l-170.702-85.494v25.19l169.08,85.876c0,0-191.98,98.471-192.362,97.326c-0.382-1.145,0-71.372,0-71.372
	l72.517-37.404l21.66,11.45l-71.277,37.785v24.809l122.135-62.594l-145.204-74.807v-71.754L512,231.997z"/>
</svg>
